<?xml version="1.0" encoding="utf-8"?><svg xmlns="http://www.w3.org/2000/svg" xmlns:xlink="http://www.w3.org/1999/xlink"><symbol viewBox="0 0 24 24" id="arrow-left"><path d="M15.41 7.41L14 6l-6 6 6 6 1.41-1.41L10.83 12z"/><path d="M0 0h24v24H0z" fill="none"/></symbol><symbol viewBox="0 0 24 24" id="arrow-right"><path d="M10 6L8.59 7.41 13.17 12l-4.58 4.59L10 18l6-6z"/><path d="M0 0h24v24H0z" fill="none"/></symbol><symbol viewBox="0 0 24 24" id="caret-arrow"><path d="M7.41 7.84L12 12.42l4.59-4.58L18 9.25l-6 6-6-6z"/><path d="M0-.75h24v24H0z" fill="none"/></symbol><symbol viewBox="0 0 24 24" id="caret-triangle"><path d="M7 10l5 5 5-5z"/><path d="M0 0h24v24H0z" fill="none"/></symbol><symbol viewBox="0 0 24 24" id="close"><path d="M19 6.41L17.59 5 12 10.59 6.41 5 5 6.41 10.59 12 5 17.59 6.41 19 12 13.41 17.59 19 19 17.59 13.41 12z"/><path d="M0 0h24v24H0z" fill="none"/></symbol><symbol viewBox="0 0 24 24" id="form-danger"><path d="M0 0h24v24H0z" fill="none"/><path d="M12 2C6.48 2 2 6.48 2 12s4.48 10 10 10 10-4.48 10-10S17.52 2 12 2zm1 15h-2v-2h2v2zm0-4h-2V7h2v6z"/></symbol><symbol viewBox="0 0 24 24" id="form-info"><path d="M0 0h24v24H0z" fill="none"/><path d="M12 2C6.48 2 2 6.48 2 12s4.48 10 10 10 10-4.48 10-10S17.52 2 12 2zm1 15h-2v-6h2v6zm0-8h-2V7h2v2z"/></symbol><symbol viewBox="0 0 24 24" id="form-success"><path d="M0 0h24v24H0z" fill="none"/><path d="M12 2C6.48 2 2 6.48 2 12s4.48 10 10 10 10-4.48 10-10S17.52 2 12 2zm-2 15l-5-5 1.41-1.41L10 14.17l7.59-7.59L19 8l-9 9z"/></symbol><symbol viewBox="0 0 24 24" id="form-warning"><path d="M0 0h24v24H0z" fill="none"/><path d="M1 21h22L12 2 1 21zm12-3h-2v-2h2v2zm0-4h-2v-4h2v4z"/></symbol><symbol viewBox="0 0 50 41" id="twitter"><title>Shape</title><path d="M45 10.092v1.262C45 25.23 34.687 41 15.625 41 9.687 41 4.375 39.423 0 36.27h2.5c4.688 0 9.375-1.578 12.813-4.416-4.376 0-8.126-3.154-9.688-7.254.625 0 1.25.315 1.875.315.938 0 1.875 0 2.813-.315-4.688-.946-8.438-5.046-8.438-10.092 1.563.63 3.125 1.26 4.688 1.26-2.813-1.89-4.375-5.045-4.375-8.83 0-1.892.624-3.784 1.25-5.046 5 6.308 12.5 10.408 21.25 10.723-.313-.63-.313-1.577-.313-2.207C24.375 4.73 29.063 0 34.688 0c2.812 0 5.624 1.262 7.5 3.154 2.187-.316 4.687-1.262 6.562-2.523-.625 2.53-2.5 4.42-4.375 5.68 1.875 0 3.75-.63 5.625-1.57-1.25 2.21-3.125 4.1-5 5.36z" fill-rule="evenodd"/></symbol></svg>